<svg xmlns="http://www.w3.org/2000/svg" width="122" height="121" viewBox="0 0 122 121">
  <metadata><?xpacket begin="﻿" id="W5M0MpCehiHzreSzNTczkc9d"?>
<x:xmpmeta xmlns:x="adobe:ns:meta/" x:xmptk="Adobe XMP Core 5.6-c140 79.160451, 2017/05/06-01:08:21        ">
   <rdf:RDF xmlns:rdf="http://www.w3.org/1999/02/22-rdf-syntax-ns#">
      <rdf:Description rdf:about=""/>
   </rdf:RDF>
</x:xmpmeta>
                                                                                                    
                                                                                                  
                           
<?xpacket end="w"?></metadata>
<defs>
    <style>
      .cls-1 {
        fill: none;
        stroke: #1da785;
        stroke-width: 3px;
        fill-rule: evenodd;
      }
    </style>
  </defs>
  <path id="Фигура_1" data-name="Фигура 1" class="cls-1" d="M27,17v92H98V17H79V11H69s1.579-5.87-7-7c-7.628.894-7,7-7,7H43v6H27Z"/>
  <path id="Фигура_2" data-name="Фигура 2" class="cls-1" d="M43,36l3,3,7-6"/>
  <path id="Фигура_3" data-name="Фигура 3" class="cls-1" d="M61,36H81"/>
  <path id="Фигура_4" data-name="Фигура 4" class="cls-1" d="M43,52l3,4,7-7"/>
  <path id="Фигура_5" data-name="Фигура 5" class="cls-1" d="M61,53H81"/>
  <path id="Фигура_6" data-name="Фигура 6" class="cls-1" d="M43,67l4,4,7-6"/>
  <path id="Фигура_7" data-name="Фигура 7" class="cls-1" d="M61,69H80"/>
  <path id="Фигура_8" data-name="Фигура 8" class="cls-1" d="M43,84l4,4,7-7"/>
  <path id="Фигура_9" data-name="Фигура 9" class="cls-1" d="M61,85H81"/>
  <path id="Фигура_11" data-name="Фигура 11" class="cls-1" d="M36,20V96H88V20"/>
  <path id="Фигура_10" data-name="Фигура 10" class="cls-1" d="M46,19v5H76V20"/>
</svg>
